<svg width="103" height="38" viewBox="0 0 103 38" fill="none" xmlns="http://www.w3.org/2000/svg">
<path d="M7.87405 20.012C7.27405 20.012 6.73405 19.888 6.25405 19.64C5.78205 19.384 5.41005 19.052 5.13805 18.644C4.87405 18.228 4.74205 17.784 4.74205 17.312C4.74205 17.008 4.81805 16.788 4.97005 16.652C5.13005 16.516 5.33405 16.448 5.58205 16.448C6.16605 16.448 6.47005 16.692 6.49405 17.18C6.51805 17.588 6.66605 17.904 6.93805 18.128C7.21005 18.344 7.52205 18.452 7.87405 18.452C8.17805 18.452 8.45005 18.384 8.69005 18.248C8.93005 18.112 9.05005 17.912 9.05005 17.648C9.05005 17.44 8.97405 17.268 8.82205 17.132C8.67005 16.988 8.49005 16.88 8.28205 16.808C8.08205 16.728 7.80205 16.636 7.44205 16.532C6.97805 16.404 6.56605 16.264 6.20605 16.112C5.84605 15.96 5.50605 15.716 5.18605 15.38C4.87405 15.036 4.71805 14.596 4.71805 14.06C4.71805 13.572 4.85005 13.132 5.11405 12.74C5.38605 12.348 5.75005 12.044 6.20605 11.828C6.66205 11.604 7.16205 11.492 7.70605 11.492C8.27405 11.492 8.78605 11.612 9.24205 11.852C9.70605 12.084 10.07 12.396 10.334 12.788C10.598 13.18 10.73 13.592 10.73 14.024C10.73 14.552 10.442 14.816 9.86605 14.816C9.61805 14.816 9.43005 14.756 9.30205 14.636C9.18205 14.516 9.08605 14.32 9.01405 14.048C8.94205 13.776 8.79405 13.54 8.57005 13.34C8.35405 13.14 8.06605 13.04 7.70605 13.04C7.35405 13.04 7.05805 13.136 6.81805 13.328C6.57805 13.512 6.45805 13.764 6.45805 14.084C6.45805 14.308 6.54605 14.472 6.72205 14.576C6.90605 14.68 7.25405 14.808 7.76605 14.96C7.81405 14.976 7.87005 14.996 7.93405 15.02C7.99805 15.036 8.06605 15.056 8.13805 15.08C8.57805 15.216 8.98205 15.372 9.35005 15.548C9.71805 15.724 10.05 15.984 10.346 16.328C10.642 16.672 10.79 17.1 10.79 17.612C10.79 18.076 10.658 18.492 10.394 18.86C10.138 19.22 9.78605 19.504 9.33805 19.712C8.89805 19.912 8.41005 20.012 7.87405 20.012ZM17.4738 11.696C17.7138 11.72 17.9018 11.792 18.0378 11.912C18.1738 12.024 18.2418 12.216 18.2418 12.488C18.2418 12.768 18.1618 12.972 18.0018 13.1C17.8498 13.228 17.6298 13.284 17.3418 13.268C16.7658 13.228 16.2938 13.208 15.9258 13.208C15.8618 14.112 15.8178 15.016 15.7938 15.92C15.7698 16.816 15.7578 17.952 15.7578 19.328C15.7578 19.624 15.6978 19.832 15.5778 19.952C15.4658 20.064 15.2458 20.12 14.9178 20.12C14.5738 20.12 14.3258 20.06 14.1738 19.94C14.0218 19.82 13.9458 19.62 13.9458 19.34C13.9458 18.172 13.9738 17.032 14.0298 15.92L14.1738 13.22C13.8218 13.236 13.5378 13.252 13.3218 13.268L12.7938 13.304C12.7618 13.312 12.7138 13.316 12.6498 13.316C12.4178 13.316 12.2298 13.24 12.0858 13.088C11.9418 12.936 11.8698 12.736 11.8698 12.488C11.8698 12.256 11.9298 12.084 12.0498 11.972C12.1778 11.86 12.3538 11.788 12.5778 11.756C12.8658 11.716 13.2698 11.684 13.7898 11.66C14.3098 11.636 14.7898 11.624 15.2298 11.624C15.5898 11.624 15.9978 11.632 16.4538 11.648C16.9178 11.656 17.2578 11.672 17.4738 11.696ZM25.7156 18.428C25.8596 18.508 25.9676 18.596 26.0396 18.692C26.1196 18.788 26.1596 18.916 26.1596 19.076C26.1596 19.308 26.0836 19.504 25.9316 19.664C25.7876 19.816 25.5996 19.892 25.3676 19.892C25.2476 19.892 25.1236 19.872 24.9956 19.832C24.8676 19.792 24.7636 19.744 24.6836 19.688L21.5996 17.78V19.304C21.5996 19.536 21.5276 19.724 21.3836 19.868C21.2396 20.012 21.0316 20.084 20.7596 20.084C20.4636 20.084 20.2396 20.004 20.0876 19.844C19.9356 19.684 19.8596 19.464 19.8596 19.184C19.8596 18.032 19.8476 16.744 19.8236 15.32L19.7996 14.108L19.7156 14.132C19.6676 14.148 19.6316 14.156 19.6076 14.156C19.2716 14.156 19.1036 13.868 19.1036 13.292C19.1036 13.108 19.1636 12.952 19.2836 12.824C19.4036 12.696 19.5716 12.572 19.7876 12.452V12.344C19.7876 11.816 20.1356 11.552 20.8316 11.552C21.0636 11.552 21.2276 11.576 21.3236 11.624C21.4196 11.664 21.4716 11.712 21.4796 11.768C21.4796 11.792 21.4836 11.808 21.4916 11.816C22.0596 11.656 22.4836 11.576 22.7636 11.576C23.4836 11.576 24.1076 11.688 24.6356 11.912C25.1716 12.136 25.5836 12.452 25.8716 12.86C26.1596 13.26 26.3036 13.72 26.3036 14.24C26.3036 15.032 25.9796 15.648 25.3316 16.088C24.6916 16.528 23.8596 16.756 22.8356 16.772L25.7156 18.428ZM22.7876 13.148C22.4116 13.148 22.0076 13.228 21.5756 13.388C21.5916 13.756 21.5996 14.4 21.5996 15.32V15.404C21.8236 15.436 22.1636 15.452 22.6196 15.452C23.1556 15.452 23.5756 15.348 23.8796 15.14C24.1836 14.932 24.3356 14.644 24.3356 14.276C24.3356 13.932 24.1996 13.66 23.9276 13.46C23.6556 13.252 23.2756 13.148 22.7876 13.148ZM33.1122 18.26C33.1522 18.252 33.2042 18.248 33.2682 18.248C33.5082 18.248 33.6962 18.32 33.8322 18.464C33.9682 18.6 34.0362 18.788 34.0362 19.028C34.0362 19.444 33.8202 19.696 33.3882 19.784C33.0282 19.856 32.3562 19.892 31.3722 19.892H30.9882C30.5482 19.892 30.1282 19.88 29.7282 19.856C29.3362 19.832 28.8522 19.784 28.2762 19.712C27.9242 19.664 27.7482 19.424 27.7482 18.992C27.7482 18.784 27.7882 18.612 27.8682 18.476C27.9482 18.332 28.0722 18.252 28.2402 18.236H28.3602C28.4562 17.588 28.4962 16.964 28.4802 16.364H28.3962C28.2042 16.364 28.0602 16.3 27.9642 16.172C27.8762 16.036 27.8322 15.836 27.8322 15.572C27.8322 15.348 27.8762 15.164 27.9642 15.02C28.0602 14.876 28.2002 14.804 28.3842 14.804H28.4802C28.4882 14.508 28.4922 13.944 28.4922 13.112C28.2202 13 28.0842 12.772 28.0842 12.428C28.0842 12.172 28.1522 11.988 28.2882 11.876C28.4242 11.756 28.6362 11.68 28.9242 11.648C29.3162 11.608 30.0282 11.588 31.0602 11.588C32.0602 11.588 32.8242 11.62 33.3522 11.684C33.5922 11.708 33.7762 11.78 33.9042 11.9C34.0402 12.012 34.1082 12.188 34.1082 12.428C34.1082 12.668 34.0482 12.864 33.9282 13.016C33.8082 13.16 33.6442 13.224 33.4362 13.208C32.7002 13.144 32.0522 13.112 31.4922 13.112C31.2362 13.112 30.9082 13.12 30.5082 13.136L30.1962 13.148L30.2322 14.828H30.5082C30.9082 14.828 31.3962 14.836 31.9722 14.852L32.7402 14.876C33.0522 14.876 33.2082 15.128 33.2082 15.632C33.2082 15.872 33.1602 16.06 33.0642 16.196C32.9762 16.332 32.8482 16.4 32.6802 16.4C32.4402 16.4 32.2362 16.396 32.0682 16.388L30.5082 16.376H30.2442C30.2282 17.096 30.1802 17.744 30.1002 18.32C30.4042 18.352 30.7842 18.368 31.2402 18.368C31.9042 18.368 32.5282 18.332 33.1122 18.26ZM40.788 18.26C40.828 18.252 40.88 18.248 40.944 18.248C41.184 18.248 41.372 18.32 41.508 18.464C41.644 18.6 41.712 18.788 41.712 19.028C41.712 19.444 41.496 19.696 41.064 19.784C40.704 19.856 40.032 19.892 39.048 19.892H38.664C38.224 19.892 37.804 19.88 37.404 19.856C37.012 19.832 36.528 19.784 35.952 19.712C35.6 19.664 35.424 19.424 35.424 18.992C35.424 18.784 35.464 18.612 35.544 18.476C35.624 18.332 35.748 18.252 35.916 18.236H36.036C36.132 17.588 36.172 16.964 36.156 16.364H36.072C35.88 16.364 35.736 16.3 35.64 16.172C35.552 16.036 35.508 15.836 35.508 15.572C35.508 15.348 35.552 15.164 35.64 15.02C35.736 14.876 35.876 14.804 36.06 14.804H36.156C36.164 14.508 36.168 13.944 36.168 13.112C35.896 13 35.76 12.772 35.76 12.428C35.76 12.172 35.828 11.988 35.964 11.876C36.1 11.756 36.312 11.68 36.6 11.648C36.992 11.608 37.704 11.588 38.736 11.588C39.736 11.588 40.5 11.62 41.028 11.684C41.268 11.708 41.452 11.78 41.58 11.9C41.716 12.012 41.784 12.188 41.784 12.428C41.784 12.668 41.724 12.864 41.604 13.016C41.484 13.16 41.32 13.224 41.112 13.208C40.376 13.144 39.728 13.112 39.168 13.112C38.912 13.112 38.584 13.12 38.184 13.136L37.872 13.148L37.908 14.828H38.184C38.584 14.828 39.072 14.836 39.648 14.852L40.416 14.876C40.728 14.876 40.884 15.128 40.884 15.632C40.884 15.872 40.836 16.06 40.74 16.196C40.652 16.332 40.524 16.4 40.356 16.4C40.116 16.4 39.912 16.396 39.744 16.388L38.184 16.376H37.92C37.904 17.096 37.856 17.744 37.776 18.32C38.08 18.352 38.46 18.368 38.916 18.368C39.58 18.368 40.204 18.332 40.788 18.26ZM48.2238 11.696C48.4638 11.72 48.6518 11.792 48.7878 11.912C48.9238 12.024 48.9918 12.216 48.9918 12.488C48.9918 12.768 48.9118 12.972 48.7518 13.1C48.5998 13.228 48.3798 13.284 48.0918 13.268C47.5158 13.228 47.0438 13.208 46.6758 13.208C46.6118 14.112 46.5678 15.016 46.5438 15.92C46.5198 16.816 46.5078 17.952 46.5078 19.328C46.5078 19.624 46.4478 19.832 46.3278 19.952C46.2158 20.064 45.9958 20.12 45.6678 20.12C45.3238 20.12 45.0758 20.06 44.9238 19.94C44.7718 19.82 44.6958 19.62 44.6958 19.34C44.6958 18.172 44.7238 17.032 44.7798 15.92L44.9238 13.22C44.5718 13.236 44.2878 13.252 44.0718 13.268L43.5438 13.304C43.5118 13.312 43.4638 13.316 43.3998 13.316C43.1678 13.316 42.9798 13.24 42.8358 13.088C42.6918 12.936 42.6198 12.736 42.6198 12.488C42.6198 12.256 42.6798 12.084 42.7998 11.972C42.9278 11.86 43.1038 11.788 43.3278 11.756C43.6158 11.716 44.0198 11.684 44.5398 11.66C45.0598 11.636 45.5398 11.624 45.9798 11.624C46.3398 11.624 46.7478 11.632 47.2038 11.648C47.6678 11.656 48.0078 11.672 48.2238 11.696ZM57.8498 11.636C58.4978 11.636 59.0898 11.756 59.6258 11.996C60.1698 12.228 60.5978 12.56 60.9098 12.992C61.2298 13.416 61.3898 13.9 61.3898 14.444C61.3898 14.956 61.2498 15.416 60.9698 15.824C60.6898 16.232 60.3058 16.552 59.8178 16.784C59.3378 17.008 58.8018 17.12 58.2098 17.12C57.9378 17.12 57.6698 17.1 57.4058 17.06C57.1498 17.02 56.9378 16.972 56.7698 16.916L56.7458 19.316C56.7458 19.548 56.6618 19.74 56.4938 19.892C56.3338 20.036 56.1178 20.108 55.8458 20.108C55.5738 20.108 55.3538 20.032 55.1858 19.88C55.0258 19.728 54.9538 19.524 54.9698 19.268C55.0018 18.436 55.0178 17.504 55.0178 16.472C55.0178 15.496 54.9978 14.628 54.9578 13.868L54.9218 13.892C54.8418 13.932 54.7698 13.952 54.7058 13.952C54.5698 13.952 54.4578 13.876 54.3698 13.724C54.2818 13.572 54.2378 13.396 54.2378 13.196C54.2378 13.036 54.2858 12.908 54.3818 12.812C54.4778 12.708 54.6218 12.596 54.8138 12.476L54.9098 12.416V12.26C54.9098 12.004 54.9818 11.812 55.1258 11.684C55.2698 11.548 55.5018 11.48 55.8218 11.48C56.1418 11.48 56.3618 11.512 56.4818 11.576C56.6098 11.632 56.6738 11.692 56.6738 11.756V11.768C57.0658 11.68 57.4578 11.636 57.8498 11.636ZM57.9218 15.704C58.3538 15.704 58.7058 15.576 58.9778 15.32C59.2578 15.064 59.3978 14.752 59.3978 14.384C59.3978 14.008 59.2458 13.712 58.9418 13.496C58.6458 13.272 58.2618 13.16 57.7898 13.16C57.5338 13.16 57.1738 13.208 56.7098 13.304C56.7178 13.44 56.7218 13.612 56.7218 13.82C56.7218 14.14 56.7298 14.516 56.7458 14.948C56.7618 15.188 56.7698 15.364 56.7698 15.476C56.8898 15.532 57.0618 15.584 57.2858 15.632C57.5178 15.68 57.7298 15.704 57.9218 15.704ZM68.3683 18.704L68.5123 19.172C68.5363 19.252 68.5483 19.328 68.5483 19.4C68.5483 19.632 68.4483 19.812 68.2483 19.94C68.0563 20.068 67.8283 20.132 67.5643 20.132C67.3563 20.132 67.1763 20.088 67.0243 20C66.8723 19.912 66.7723 19.788 66.7243 19.628L66.3163 18.08L63.8683 18.068L63.4483 19.592C63.4003 19.776 63.3003 19.912 63.1483 20C63.0043 20.08 62.8283 20.12 62.6203 20.12C62.3563 20.12 62.1243 20.056 61.9243 19.928C61.7243 19.792 61.6243 19.616 61.6243 19.4C61.6243 19.32 61.6363 19.24 61.6603 19.16L63.0403 15.008L63.7123 12.956C63.8963 12.412 64.0963 12.028 64.3123 11.804C64.5283 11.572 64.8203 11.456 65.1883 11.456C65.5403 11.456 65.8163 11.56 66.0163 11.768C66.2243 11.968 66.4123 12.328 66.5803 12.848C67.0203 14.24 67.4043 15.476 67.7323 16.556H68.0563C68.4483 16.556 68.6443 16.808 68.6443 17.312C68.6443 17.824 68.4963 18.08 68.2003 18.08H68.1883L68.3683 18.704ZM65.9083 16.532L65.7523 15.968L65.4523 14.912L65.3323 14.492C65.2843 14.316 65.2443 14.188 65.2123 14.108C65.1803 14.028 65.1483 13.988 65.1163 13.988C65.0763 13.988 65.0443 14.024 65.0203 14.096C64.9963 14.168 64.9603 14.296 64.9123 14.48L64.8163 14.828L64.3243 16.52L65.9083 16.532ZM72.6315 20C72.3595 20 72.1195 19.936 71.9115 19.808C71.7035 19.672 71.5755 19.504 71.5275 19.304C71.5115 19.256 71.4395 18.936 71.3115 18.344C71.1115 17.344 70.8755 16.4 70.6035 15.512C70.4195 14.896 70.2675 14.352 70.1475 13.88L69.7875 12.584C69.7635 12.496 69.7515 12.416 69.7515 12.344C69.7515 12.096 69.8475 11.9 70.0395 11.756C70.2315 11.604 70.4715 11.528 70.7595 11.528C70.9515 11.528 71.1075 11.572 71.2275 11.66C71.3555 11.74 71.4435 11.88 71.4915 12.08C71.5475 12.32 71.5995 12.532 71.6475 12.716C71.7035 12.892 71.7475 13.048 71.7795 13.184C71.9795 13.864 72.1435 14.508 72.2715 15.116C72.3115 15.292 72.3835 15.656 72.4875 16.208C72.5595 16.552 72.6275 16.868 72.6915 17.156C72.7555 17.444 72.7995 17.588 72.8235 17.588C72.8475 17.588 72.8875 17.512 72.9435 17.36C73.0075 17.208 73.0595 17.068 73.0995 16.94C73.1475 16.804 73.1835 16.7 73.2075 16.628C73.2395 16.516 73.3235 16.268 73.4595 15.884C73.5715 15.588 73.6595 15.368 73.7235 15.224C73.7955 15.072 73.8875 14.94 73.9995 14.828C74.1115 14.716 74.2475 14.66 74.4075 14.66C74.6315 14.66 74.8155 14.76 74.9595 14.96C75.1035 15.16 75.2515 15.476 75.4035 15.908C75.7955 17.012 76.0315 17.564 76.1115 17.564C76.1595 17.564 76.2515 17.132 76.3875 16.268C76.4195 16.108 76.4515 15.936 76.4835 15.752C76.5155 15.56 76.5515 15.356 76.5915 15.14C76.7995 14.068 77.0155 13.052 77.2395 12.092C77.3275 11.724 77.5955 11.54 78.0435 11.54C78.3235 11.54 78.5555 11.612 78.7395 11.756C78.9235 11.9 79.0155 12.084 79.0155 12.308C79.0155 12.372 79.0035 12.448 78.9795 12.536C78.8035 13.2 78.6195 13.952 78.4275 14.792L78.2595 15.5C78.1315 16.036 77.9995 16.632 77.8635 17.288C77.7355 17.944 77.6515 18.364 77.6115 18.548L77.4795 19.232C77.4315 19.472 77.3155 19.656 77.1315 19.784C76.9475 19.912 76.7115 19.976 76.4235 19.976C76.1355 19.976 75.8915 19.908 75.6915 19.772C75.4995 19.636 75.3235 19.42 75.1635 19.124C75.1395 19.084 75.0235 18.844 74.8155 18.404C74.5995 17.924 74.4755 17.684 74.4435 17.684C74.4115 17.684 74.3315 17.872 74.2035 18.248C74.0355 18.696 73.9195 18.984 73.8555 19.112C73.5675 19.704 73.1595 20 72.6315 20ZM83.3662 20.012C82.7662 20.012 82.2262 19.888 81.7462 19.64C81.2742 19.384 80.9022 19.052 80.6302 18.644C80.3662 18.228 80.2342 17.784 80.2342 17.312C80.2342 17.008 80.3102 16.788 80.4622 16.652C80.6222 16.516 80.8262 16.448 81.0742 16.448C81.6582 16.448 81.9622 16.692 81.9862 17.18C82.0102 17.588 82.1582 17.904 82.4302 18.128C82.7022 18.344 83.0142 18.452 83.3662 18.452C83.6702 18.452 83.9422 18.384 84.1822 18.248C84.4222 18.112 84.5422 17.912 84.5422 17.648C84.5422 17.44 84.4662 17.268 84.3142 17.132C84.1622 16.988 83.9822 16.88 83.7742 16.808C83.5742 16.728 83.2942 16.636 82.9342 16.532C82.4702 16.404 82.0582 16.264 81.6982 16.112C81.3382 15.96 80.9982 15.716 80.6782 15.38C80.3662 15.036 80.2102 14.596 80.2102 14.06C80.2102 13.572 80.3422 13.132 80.6062 12.74C80.8782 12.348 81.2422 12.044 81.6982 11.828C82.1542 11.604 82.6542 11.492 83.1982 11.492C83.7662 11.492 84.2782 11.612 84.7342 11.852C85.1982 12.084 85.5622 12.396 85.8262 12.788C86.0902 13.18 86.2222 13.592 86.2222 14.024C86.2222 14.552 85.9342 14.816 85.3582 14.816C85.1102 14.816 84.9222 14.756 84.7942 14.636C84.6742 14.516 84.5782 14.32 84.5062 14.048C84.4342 13.776 84.2862 13.54 84.0622 13.34C83.8462 13.14 83.5582 13.04 83.1982 13.04C82.8462 13.04 82.5502 13.136 82.3102 13.328C82.0702 13.512 81.9502 13.764 81.9502 14.084C81.9502 14.308 82.0382 14.472 82.2142 14.576C82.3982 14.68 82.7462 14.808 83.2582 14.96C83.3062 14.976 83.3622 14.996 83.4262 15.02C83.4902 15.036 83.5582 15.056 83.6302 15.08C84.0702 15.216 84.4742 15.372 84.8422 15.548C85.2102 15.724 85.5422 15.984 85.8382 16.328C86.1342 16.672 86.2822 17.1 86.2822 17.612C86.2822 18.076 86.1502 18.492 85.8862 18.86C85.6302 19.22 85.2782 19.504 84.8302 19.712C84.3902 19.912 83.9022 20.012 83.3662 20.012Z" fill="#38B9FF"/>
<mask id="mask0_15_2" style="mask-type:luminance" maskUnits="userSpaceOnUse" x="62" y="21" width="3" height="3">
<path d="M63.232 21.0674L64.8915 21.6285L64.3053 23.2769L62.6458 22.7157L63.232 21.0674Z" fill="white"/>
</mask>
<g mask="url(#mask0_15_2)">
<mask id="mask1_15_2" style="mask-type:luminance" maskUnits="userSpaceOnUse" x="46" y="1" width="70" height="62">
<path d="M66.8817 62.3872L46.6461 20.51L94.953 1.93701L115.189 43.8144L66.8817 62.3872Z" fill="white"/>
</mask>
<g mask="url(#mask1_15_2)">
<mask id="mask2_15_2" style="mask-type:luminance" maskUnits="userSpaceOnUse" x="46" y="2" width="69" height="61">
<path d="M95.0993 2.09852L114.945 43.9828L66.6095 62.2065L46.7632 20.3226L95.0993 2.09852Z" fill="white"/>
</mask>
<g mask="url(#mask2_15_2)">
<mask id="mask3_15_2" style="mask-type:luminance" maskUnits="userSpaceOnUse" x="46" y="2" width="69" height="61">
<path d="M95.1359 2.12006L114.912 44.0042L66.5702 62.1806L46.7938 20.2969L95.1359 2.12006Z" fill="white"/>
</mask>
<g mask="url(#mask3_15_2)">
<path d="M63.5482 22.8423C64.0457 22.9014 64.5975 22.5395 64.652 22.0779C64.7238 21.4678 63.9836 21.3577 63.5248 21.5371C63.1249 21.6927 62.5166 22.2633 62.9748 22.6791C63.1424 22.8313 63.3477 22.8721 63.5482 22.8423Z" fill="#38B9FF"/>
</g>
</g>
</g>
</g>
<mask id="mask4_15_2" style="mask-type:luminance" maskUnits="userSpaceOnUse" x="58" y="21" width="6" height="6">
<path d="M60.8565 21.0287L63.9762 22.4666L61.9792 26.9319L58.8596 25.494L60.8565 21.0287Z" fill="white"/>
</mask>
<g mask="url(#mask4_15_2)">
<mask id="mask5_15_2" style="mask-type:luminance" maskUnits="userSpaceOnUse" x="22" y="-12" width="59" height="64">
<path d="M36.2496 51.2727L22.5638 8.11244L66.9117 -11.294L80.5978 31.8665L36.2496 51.2727Z" fill="white"/>
</mask>
<g mask="url(#mask5_15_2)">
<mask id="mask6_15_2" style="mask-type:luminance" maskUnits="userSpaceOnUse" x="22" y="-12" width="59" height="64">
<path d="M66.8662 -11.309L80.5518 31.8517L36.204 51.2581L22.5182 8.09782L66.8662 -11.309Z" fill="white"/>
</mask>
<g mask="url(#mask6_15_2)">
<mask id="mask7_15_2" style="mask-type:luminance" maskUnits="userSpaceOnUse" x="22" y="-12" width="59" height="64">
<path d="M66.8662 -11.309L80.5518 31.8517L36.204 51.2581L22.5182 8.09782L66.8662 -11.309Z" fill="white"/>
</mask>
<g mask="url(#mask7_15_2)">
<path d="M60.5576 25.6132C61.3093 25.1525 61.7878 25.2104 62.2506 25.219C62.7138 25.2277 62.9566 24.6952 62.9566 24.6952C62.9566 24.6952 63.1988 24.1628 62.8923 23.8107C62.5861 23.4581 62.2332 23.1256 62.0923 22.2453C61.9519 21.3658 61.3194 21.2774 60.9318 21.4713C60.545 21.6645 60.2322 22.2695 60.4075 22.6233C60.5822 22.9763 60.5451 23.2635 60.4329 23.5104C60.3201 23.7575 60.129 23.9722 59.7498 24.0652C59.3709 24.1585 59.1198 24.7919 59.225 25.217C59.3302 25.6422 59.8061 26.0745 60.5576 25.6132Z" fill="#38B9FF"/>
</g>
</g>
</g>
</g>
<mask id="mask8_15_2" style="mask-type:luminance" maskUnits="userSpaceOnUse" x="63" y="24" width="3" height="4">
<path d="M64.618 24.9621L65.449 26.5297L63.9194 27.3319L63.0884 25.7643L64.618 24.9621Z" fill="white"/>
</mask>
<g mask="url(#mask8_15_2)">
<mask id="mask9_15_2" style="mask-type:luminance" maskUnits="userSpaceOnUse" x="39" y="13" width="62" height="65">
<path d="M39.6126 57.8444L52.9322 13.0033L100.487 33.0035L87.1674 77.845L39.6126 57.8444Z" fill="white"/>
</mask>
<g mask="url(#mask9_15_2)">
<mask id="mask10_15_2" style="mask-type:luminance" maskUnits="userSpaceOnUse" x="39" y="12" width="62" height="66">
<path d="M100.483 33.2252L86.8742 77.8047L39.5366 57.5301L53.1445 12.9508L100.483 33.2252Z" fill="white"/>
</mask>
<g mask="url(#mask10_15_2)">
<mask id="mask11_15_2" style="mask-type:luminance" maskUnits="userSpaceOnUse" x="39" y="12" width="62" height="66">
<path d="M100.493 33.2672L86.8338 77.8002L39.5258 57.4882L53.1849 12.9553L100.493 33.2672Z" fill="white"/>
</mask>
<g mask="url(#mask11_15_2)">
<path d="M63.6601 26.4861C63.9822 26.8759 64.6256 26.9942 64.9741 26.6929C65.4346 26.2948 64.9702 25.6986 64.5166 25.511C64.1217 25.3468 63.2976 25.3426 63.3524 25.967C63.3725 26.1955 63.4944 26.3684 63.6601 26.4861Z" fill="#38B9FF"/>
</g>
</g>
</g>
</g>
<mask id="mask12_15_2" style="mask-type:luminance" maskUnits="userSpaceOnUse" x="63" y="22" width="4" height="4">
<path d="M64.9892 22.7992L66.3782 23.8793L65.3011 25.248L63.9122 24.1679L64.9892 22.7992Z" fill="white"/>
</mask>
<g mask="url(#mask12_15_2)">
<mask id="mask13_15_2" style="mask-type:luminance" maskUnits="userSpaceOnUse" x="49" y="15" width="58" height="49">
<path d="M55.3134 63.1681L49.503 16.7915L101.021 15.1471L106.832 61.5241L55.3134 63.1681Z" fill="white"/>
</mask>
<g mask="url(#mask13_15_2)">
<mask id="mask14_15_2" style="mask-type:luminance" maskUnits="userSpaceOnUse" x="49" y="15" width="58" height="48">
<path d="M101.106 15.3507L106.548 61.6097L55.1178 62.9137L49.6761 16.6551L101.106 15.3507Z" fill="white"/>
</mask>
<g mask="url(#mask14_15_2)">
<mask id="mask15_15_2" style="mask-type:luminance" maskUnits="userSpaceOnUse" x="49" y="15" width="58" height="48">
<path d="M101.133 15.3841L106.509 61.6217L55.0905 62.8791L49.7144 16.6419L101.133 15.3841Z" fill="white"/>
</mask>
<g mask="url(#mask15_15_2)">
<path d="M64.7243 24.586C65.1753 24.8064 65.8113 24.6456 66.0093 24.226C66.2708 23.6716 65.6068 23.3226 65.1166 23.3411C64.6895 23.3565 63.9339 23.6964 64.2346 24.2419C64.3445 24.4416 64.5254 24.5481 64.7243 24.586Z" fill="#38B9FF"/>
</g>
</g>
</g>
</g>
<mask id="mask16_15_2" style="mask-type:luminance" maskUnits="userSpaceOnUse" x="60" y="26" width="3" height="2">
<path d="M62.7372 26.1914L62.6664 27.9763L60.9536 27.8734L61.0245 26.0885L62.7372 26.1914Z" fill="white"/>
</mask>
<g mask="url(#mask16_15_2)">
<mask id="mask17_15_2" style="mask-type:luminance" maskUnits="userSpaceOnUse" x="24" y="9" width="66" height="75">
<path d="M24.8575 41.5687L58.6921 9.79506L89.4799 51.7803L55.6453 83.5545L24.8575 41.5687Z" fill="white"/>
</mask>
<g mask="url(#mask17_15_2)">
<mask id="mask18_15_2" style="mask-type:luminance" maskUnits="userSpaceOnUse" x="24" y="9" width="66" height="75">
<path d="M89.3655 51.9694L55.414 83.3672L24.9495 41.2579L58.9005 9.86015L89.3655 51.9694Z" fill="white"/>
</mask>
<g mask="url(#mask18_15_2)">
<mask id="mask19_15_2" style="mask-type:luminance" maskUnits="userSpaceOnUse" x="24" y="9" width="66" height="75">
<path d="M89.3551 52.0111L55.3845 83.3405L24.9628 41.2122L58.933 9.88274L89.3551 52.0111Z" fill="white"/>
</mask>
<g mask="url(#mask19_15_2)">
<path d="M61.154 27.0087C61.2354 27.5126 61.7281 27.9492 62.1775 27.8704C62.7714 27.7662 62.6712 27.0102 62.3759 26.6124C62.1193 26.2654 61.4146 25.8333 61.1496 26.4008C61.0525 26.6084 61.0707 26.821 61.154 27.0087Z" fill="#38B9FF"/>
</g>
</g>
</g>
</g>
<mask id="mask20_15_2" style="mask-type:luminance" maskUnits="userSpaceOnUse" x="68" y="29" width="3" height="3">
<path d="M68.9416 29.7181L70.5897 30.3117L69.9713 31.9482L68.3231 31.3546L68.9416 29.7181Z" fill="white"/>
</mask>
<g mask="url(#mask20_15_2)">
<mask id="mask21_15_2" style="mask-type:luminance" maskUnits="userSpaceOnUse" x="52" y="11" width="69" height="61">
<path d="M71.7789 71.1016L52.3699 28.835L101.032 11.2145L120.442 53.4814L71.7789 71.1016Z" fill="white"/>
</mask>
<g mask="url(#mask21_15_2)">
<mask id="mask22_15_2" style="mask-type:luminance" maskUnits="userSpaceOnUse" x="52" y="11" width="69" height="60">
<path d="M101.174 11.3815L120.196 53.6514L71.5162 70.9208L52.4943 28.6514L101.174 11.3815Z" fill="white"/>
</mask>
<g mask="url(#mask22_15_2)">
<mask id="mask23_15_2" style="mask-type:luminance" maskUnits="userSpaceOnUse" x="52" y="11" width="69" height="60">
<path d="M101.212 11.4012L120.161 53.6656L71.4703 70.8885L52.5212 28.6246L101.212 11.4012Z" fill="white"/>
</mask>
<g mask="url(#mask23_15_2)">
<path d="M69.2235 31.499C69.7197 31.5679 70.2783 31.2168 70.3416 30.7562C70.4253 30.1477 69.6874 30.023 69.2253 30.1935C68.8225 30.3412 68.2034 30.8999 68.6535 31.3247C68.8181 31.4801 69.0225 31.5249 69.2235 31.499Z" fill="#38B9FF"/>
</g>
</g>
</g>
</g>
<mask id="mask24_15_2" style="mask-type:luminance" maskUnits="userSpaceOnUse" x="64" y="29" width="6" height="7">
<path d="M66.5674 29.6327L69.6582 31.1316L67.5739 35.5568L64.4831 34.0579L66.5674 29.6327Z" fill="white"/>
</mask>
<g mask="url(#mask24_15_2)">
<mask id="mask25_15_2" style="mask-type:luminance" maskUnits="userSpaceOnUse" x="28" y="-3" width="59" height="63">
<path d="M41.3709 59.3875L28.5357 15.9666L73.2562 -2.5648L86.0919 40.8562L41.3709 59.3875Z" fill="white"/>
</mask>
<g mask="url(#mask25_15_2)">
<mask id="mask26_15_2" style="mask-type:luminance" maskUnits="userSpaceOnUse" x="28" y="-3" width="59" height="63">
<path d="M73.2109 -2.5806L86.0459 40.8407L41.3254 59.3721L28.4901 15.9512L73.2109 -2.5806Z" fill="white"/>
</mask>
<g mask="url(#mask26_15_2)">
<mask id="mask27_15_2" style="mask-type:luminance" maskUnits="userSpaceOnUse" x="28" y="-3" width="59" height="63">
<path d="M73.2109 -2.5806L86.0459 40.8407L41.3254 59.3721L28.4901 15.9512L73.2109 -2.5806Z" fill="white"/>
</mask>
<g mask="url(#mask27_15_2)">
<path d="M66.1785 34.2104C66.939 33.7646 67.4163 33.8319 67.8788 33.8495C68.3418 33.8674 68.595 33.3397 68.595 33.3397C68.595 33.3397 68.8476 32.8122 68.5481 32.4541C68.2489 32.0956 67.9026 31.7563 67.779 30.8733C67.6559 29.9912 67.0253 29.8905 66.634 30.0767C66.2434 30.2623 65.9188 30.861 66.0871 31.2181C66.2548 31.5745 66.2121 31.8609 66.095 32.1056C65.9774 32.3504 65.7821 32.5613 65.4012 32.6469C65.0206 32.7327 64.757 33.361 64.8539 33.7882C64.9507 34.2153 65.418 34.6568 66.1785 34.2104Z" fill="#38B9FF"/>
</g>
</g>
</g>
</g>
<mask id="mask28_15_2" style="mask-type:luminance" maskUnits="userSpaceOnUse" x="68" y="33" width="4" height="3">
<path d="M70.2509 33.6392L71.0508 35.2229L69.5058 35.9948L68.7058 34.4112L70.2509 33.6392Z" fill="white"/>
</mask>
<g mask="url(#mask28_15_2)">
<mask id="mask29_15_2" style="mask-type:luminance" maskUnits="userSpaceOnUse" x="44" y="21" width="62" height="66">
<path d="M44.6043 66.024L58.8022 21.4532L105.955 42.3837L91.757 86.955L44.6043 66.024Z" fill="white"/>
</mask>
<g mask="url(#mask29_15_2)">
<mask id="mask30_15_2" style="mask-type:luminance" maskUnits="userSpaceOnUse" x="44" y="21" width="62" height="66">
<path d="M105.946 42.6054L91.4646 86.9089L44.5344 65.7083L59.0155 21.4049L105.946 42.6054Z" fill="white"/>
</mask>
<g mask="url(#mask30_15_2)">
<mask id="mask31_15_2" style="mask-type:luminance" maskUnits="userSpaceOnUse" x="44" y="21" width="62" height="66">
<path d="M105.956 42.6475L91.4243 86.9036L44.5245 65.6661L59.0558 21.4102L105.956 42.6475Z" fill="white"/>
</mask>
<g mask="url(#mask31_15_2)">
<path d="M69.2632 35.1442C69.5776 35.5402 70.2186 35.6711 70.5729 35.3768C71.0411 34.9878 70.5886 34.3825 70.1387 34.186C69.7471 34.0142 68.9233 33.9937 68.9658 34.6192C68.9813 34.848 69.0998 35.0232 69.2632 35.1442Z" fill="#38B9FF"/>
</g>
</g>
</g>
</g>
<mask id="mask32_15_2" style="mask-type:luminance" maskUnits="userSpaceOnUse" x="69" y="31" width="4" height="3">
<path d="M70.6644 31.4841L72.0319 32.5912L70.9281 33.9385L69.5607 32.8313L70.6644 31.4841Z" fill="white"/>
</mask>
<g mask="url(#mask32_15_2)">
<mask id="mask33_15_2" style="mask-type:luminance" maskUnits="userSpaceOnUse" x="55" y="24" width="57" height="48">
<path d="M60.1974 71.6551L55.2992 25.1732L106.84 24.5413L111.738 71.0235L60.1974 71.6551Z" fill="white"/>
</mask>
<g mask="url(#mask33_15_2)">
<mask id="mask34_15_2" style="mask-type:luminance" maskUnits="userSpaceOnUse" x="55" y="24" width="57" height="48">
<path d="M106.921 24.7465L111.452 71.1035L60.0068 71.3969L55.475 25.0402L106.921 24.7465Z" fill="white"/>
</mask>
<g mask="url(#mask34_15_2)">
<mask id="mask35_15_2" style="mask-type:luminance" maskUnits="userSpaceOnUse" x="55" y="24" width="57" height="48">
<path d="M106.947 24.7807L111.413 71.1155L59.9808 71.3627L55.5139 25.0282L106.947 24.7807Z" fill="white"/>
</mask>
<g mask="url(#mask35_15_2)">
<path d="M70.3648 33.2657C70.8114 33.4948 71.4503 33.3464 71.6564 32.9307C71.9286 32.3814 71.2716 32.0195 70.7812 32.0285C70.354 32.0355 69.5921 32.3607 69.882 32.9121C69.9881 33.1139 70.1668 33.2238 70.3648 33.2657Z" fill="#38B9FF"/>
</g>
</g>
</g>
</g>
<mask id="mask36_15_2" style="mask-type:luminance" maskUnits="userSpaceOnUse" x="66" y="34" width="3" height="3">
<path d="M68.3463 34.8314L68.2403 36.6145L66.53 36.478L66.6359 34.6948L68.3463 34.8314Z" fill="white"/>
</mask>
<g mask="url(#mask36_15_2)">
<mask id="mask37_15_2" style="mask-type:luminance" maskUnits="userSpaceOnUse" x="30" y="18" width="65" height="75">
<path d="M30.1718 49.4616L64.624 18.3587L94.5811 60.9407L60.1288 92.044L30.1718 49.4616Z" fill="white"/>
</mask>
<g mask="url(#mask37_15_2)">
<mask id="mask38_15_2" style="mask-type:luminance" maskUnits="userSpaceOnUse" x="30" y="18" width="65" height="74">
<path d="M94.4629 61.1275L59.9012 91.8522L30.2698 49.1526L64.8311 18.4279L94.4629 61.1275Z" fill="white"/>
</mask>
<g mask="url(#mask38_15_2)">
<mask id="mask39_15_2" style="mask-type:luminance" maskUnits="userSpaceOnUse" x="30" y="18" width="65" height="74">
<path d="M94.4504 61.1691L59.8694 91.8268L30.2824 49.1111L64.863 18.4534L94.4504 61.1691Z" fill="white"/>
</mask>
<g mask="url(#mask39_15_2)">
<path d="M66.7472 35.6177C66.8188 36.123 67.3028 36.5691 67.7537 36.4991C68.3495 36.4065 68.2641 35.6486 67.9767 35.2452C67.7269 34.8933 67.0309 34.4476 66.7548 35.0098C66.6536 35.2154 66.6676 35.4283 66.7472 35.6177Z" fill="#38B9FF"/>
</g>
</g>
</g>
</g>
<mask id="mask40_15_2" style="mask-type:luminance" maskUnits="userSpaceOnUse" x="76" y="23" width="3" height="3">
<path d="M76.5003 23.8867L78.2291 24.17L77.9194 25.8923L76.1907 25.6091L76.5003 23.8867Z" fill="white"/>
</mask>
<g mask="url(#mask40_15_2)">
<mask id="mask41_15_2" style="mask-type:luminance" maskUnits="userSpaceOnUse" x="60" y="-1" width="72" height="66">
<path d="M86.8367 64.0698L60.0454 26.0407L104.679 -0.164402L131.47 37.8647L86.8367 64.0698Z" fill="white"/>
</mask>
<g mask="url(#mask41_15_2)">
<mask id="mask42_15_2" style="mask-type:luminance" maskUnits="userSpaceOnUse" x="60" y="-1" width="72" height="65">
<path d="M104.849 -0.0260728L131.26 38.0768L86.5454 63.9398L60.1343 25.8374L104.849 -0.0260728Z" fill="white"/>
</mask>
<g mask="url(#mask42_15_2)">
<mask id="mask43_15_2" style="mask-type:luminance" maskUnits="userSpaceOnUse" x="60" y="-1" width="72" height="65">
<path d="M104.888 -0.00920634L131.232 38.1068L86.5062 63.9231L60.1624 25.8076L104.888 -0.00920634Z" fill="white"/>
</mask>
<g mask="url(#mask43_15_2)">
<path d="M77.1021 25.5868C77.6025 25.5641 78.0878 25.1169 78.0661 24.6524C78.0375 24.0386 77.2892 24.0506 76.8659 24.3025C76.4967 24.5213 75.9899 25.1836 76.5098 25.5193C76.7 25.6422 76.9091 25.649 77.1021 25.5868Z" fill="#38B9FF"/>
</g>
</g>
</g>
</g>
<mask id="mask44_15_2" style="mask-type:luminance" maskUnits="userSpaceOnUse" x="72" y="24" width="6" height="6">
<path d="M74.1503 24.2358L77.4626 25.1463L76.2203 29.8786L72.908 28.9681L74.1503 24.2358Z" fill="white"/>
</mask>
<g mask="url(#mask44_15_2)">
<mask id="mask45_15_2" style="mask-type:luminance" maskUnits="userSpaceOnUse" x="34" y="-9" width="62" height="68">
<path d="M54.8025 58.0951L34.2643 17.7319L74.8556 -8.6502L95.3942 31.7131L54.8025 58.0951Z" fill="white"/>
</mask>
<g mask="url(#mask45_15_2)">
<mask id="mask46_15_2" style="mask-type:luminance" maskUnits="userSpaceOnUse" x="34" y="-9" width="62" height="68">
<path d="M74.8081 -8.65747L95.3462 31.7061L54.7548 58.0883L34.2166 17.7251L74.8081 -8.65747Z" fill="white"/>
</mask>
<g mask="url(#mask46_15_2)">
<mask id="mask47_15_2" style="mask-type:luminance" maskUnits="userSpaceOnUse" x="34" y="-9" width="62" height="68">
<path d="M74.8081 -8.65747L95.3462 31.7061L54.7548 58.0883L34.2166 17.7251L74.8081 -8.65747Z" fill="white"/>
</mask>
<g mask="url(#mask47_15_2)">
<path d="M74.6027 28.8089C75.2692 28.2318 75.7507 28.2109 76.2088 28.1439C76.6672 28.077 76.8199 27.5118 76.8199 27.5118C76.8199 27.5118 76.9721 26.947 76.6124 26.6494C76.2527 26.3514 75.8504 26.0808 75.5678 25.235C75.2859 24.3899 74.6475 24.4058 74.2968 24.6604C73.9466 24.9141 73.7366 25.5622 73.9672 25.8827C74.1971 26.2026 74.2074 26.4921 74.1368 26.754C74.0658 27.0163 73.9123 27.2593 73.5533 27.413C73.1947 27.5668 73.0502 28.2328 73.2233 28.6352C73.3965 29.0376 73.9365 29.3867 74.6027 28.8089Z" fill="#38B9FF"/>
</g>
</g>
</g>
</g>
<mask id="mask48_15_2" style="mask-type:luminance" maskUnits="userSpaceOnUse" x="77" y="27" width="3" height="3">
<path d="M78.5027 27.5044L79.578 28.916L78.1997 29.957L77.1243 28.5454L78.5027 27.5044Z" fill="white"/>
</mask>
<g mask="url(#mask48_15_2)">
<mask id="mask49_15_2" style="mask-type:luminance" maskUnits="userSpaceOnUse" x="59" y="17" width="57" height="60">
<path d="M59.1918 64.0324L65.0238 17.6077L115.203 29.5926L109.371 76.0177L59.1918 64.0324Z" fill="white"/>
</mask>
<g mask="url(#mask49_15_2)">
<mask id="mask50_15_2" style="mask-type:luminance" maskUnits="userSpaceOnUse" x="59" y="17" width="57" height="60">
<path d="M115.234 29.8121L109.075 76.0256L59.0655 63.7345L65.2247 17.5212L115.234 29.8121Z" fill="white"/>
</mask>
<g mask="url(#mask50_15_2)">
<mask id="mask51_15_2" style="mask-type:luminance" maskUnits="userSpaceOnUse" x="59" y="17" width="57" height="60">
<path d="M115.252 29.8516L109.034 76.0277L59.048 63.6948L65.2652 17.519L115.252 29.8516Z" fill="white"/>
</mask>
<g mask="url(#mask51_15_2)">
<path d="M77.8061 29.1646C78.1874 29.4968 78.8415 29.5086 79.1362 29.1545C79.5257 28.6866 78.9703 28.1738 78.4921 28.0627C78.0758 27.965 77.262 28.0952 77.4179 28.7025C77.4749 28.9248 77.6234 29.0755 77.8061 29.1646Z" fill="#38B9FF"/>
</g>
</g>
</g>
</g>
<mask id="mask52_15_2" style="mask-type:luminance" maskUnits="userSpaceOnUse" x="77" y="25" width="4" height="3">
<path d="M78.5163 25.3094L80.0627 26.1489L79.2232 27.6752L77.6767 26.8357L78.5163 25.3094Z" fill="white"/>
</mask>
<g mask="url(#mask52_15_2)">
<mask id="mask53_15_2" style="mask-type:luminance" maskUnits="userSpaceOnUse" x="62" y="11" width="65" height="56">
<path d="M75.5503 66.7264L62.2579 21.9052L112.819 11.8832L126.112 56.7047L75.5503 66.7264Z" fill="white"/>
</mask>
<g mask="url(#mask53_15_2)">
<mask id="mask54_15_2" style="mask-type:luminance" maskUnits="userSpaceOnUse" x="62" y="12" width="64" height="55">
<path d="M112.936 12.0703L125.845 56.8356L75.3158 66.5073L62.4065 21.7423L112.936 12.0703Z" fill="white"/>
</mask>
<g mask="url(#mask54_15_2)">
<mask id="mask55_15_2" style="mask-type:luminance" maskUnits="userSpaceOnUse" x="62" y="12" width="64" height="55">
<path d="M112.968 12.0991L125.809 56.8545L75.284 66.4784L62.4425 21.7234L112.968 12.0991Z" fill="white"/>
</mask>
<g mask="url(#mask55_15_2)">
<path d="M78.5463 27.116C79.0272 27.26 79.6285 26.9976 79.7554 26.5512C79.923 25.9614 79.211 25.7252 78.7303 25.8235C78.3115 25.9083 77.6215 26.367 78.0071 26.8563C78.1481 27.0354 78.3439 27.111 78.5463 27.116Z" fill="#38B9FF"/>
</g>
</g>
</g>
</g>
<mask id="mask56_15_2" style="mask-type:luminance" maskUnits="userSpaceOnUse" x="75" y="29" width="3" height="2">
<path d="M76.8474 29.0243L77.0684 30.7973L75.3618 30.9749L75.1408 29.2019L76.8474 29.0243Z" fill="white"/>
</mask>
<g mask="url(#mask56_15_2)">
<mask id="mask57_15_2" style="mask-type:luminance" maskUnits="userSpaceOnUse" x="41" y="13" width="67" height="74">
<path d="M41.981 50.3756L70.1837 13.5024L107.404 49.9176L79.201 86.7914L41.981 50.3756Z" fill="white"/>
</mask>
<g mask="url(#mask57_15_2)">
<mask id="mask58_15_2" style="mask-type:luminance" maskUnits="userSpaceOnUse" x="42" y="13" width="66" height="74">
<path d="M107.321 50.123L78.9422 86.6443L42.021 50.0539L70.3998 13.5327L107.321 50.123Z" fill="white"/>
</mask>
<g mask="url(#mask58_15_2)">
<mask id="mask59_15_2" style="mask-type:luminance" maskUnits="userSpaceOnUse" x="42" y="13" width="66" height="74">
<path d="M107.317 50.1661L78.9068 86.6246L42.026 50.0099L70.4358 13.5515L107.317 50.1661Z" fill="white"/>
</mask>
<g mask="url(#mask59_15_2)">
<path d="M75.4186 30.089C75.5811 30.5729 76.1384 30.9235 76.5689 30.7724C77.1379 30.5728 76.9158 29.843 76.5596 29.4986C76.2498 29.1981 75.4842 28.8865 75.3151 29.4897C75.2532 29.7104 75.3058 29.9173 75.4186 30.089Z" fill="#38B9FF"/>
</g>
</g>
</g>
</g>
<mask id="mask60_15_2" style="mask-type:luminance" maskUnits="userSpaceOnUse" x="84" y="27" width="3" height="3">
<path d="M84.1741 28.1838L85.8844 27.8049L86.2354 29.5188L84.5251 29.8977L84.1741 28.1838Z" fill="white"/>
</mask>
<g mask="url(#mask60_15_2)">
<mask id="mask61_15_2" style="mask-type:luminance" maskUnits="userSpaceOnUse" x="69" y="-5" width="72" height="67">
<path d="M108.669 61.6502L69.6882 36.2902L101.418 -4.60519L140.399 20.7547L108.669 61.6502Z" fill="white"/>
</mask>
<g mask="url(#mask61_15_2)">
<mask id="mask62_15_2" style="mask-type:luminance" maskUnits="userSpaceOnUse" x="69" y="-5" width="72" height="67">
<path d="M101.627 -4.53742L140.285 21.034L108.355 61.6391L69.6978 36.0681L101.627 -4.53742Z" fill="white"/>
</mask>
<g mask="url(#mask62_15_2)">
<mask id="mask63_15_2" style="mask-type:luminance" maskUnits="userSpaceOnUse" x="69" y="-5" width="72" height="67">
<path d="M101.67 -4.53641L140.27 21.072L108.312 61.6381L69.7128 36.0301L101.67 -4.53641Z" fill="white"/>
</mask>
<g mask="url(#mask63_15_2)">
<path d="M85.3637 29.5388C85.82 29.3319 86.1047 28.7367 85.9122 28.3135C85.6578 27.7544 84.9675 28.0431 84.6679 28.4341C84.4062 28.7742 84.1813 29.5771 84.7887 29.6958C85.0109 29.7393 85.2076 29.668 85.3637 29.5388Z" fill="#38B9FF"/>
</g>
</g>
</g>
</g>
<mask id="mask64_15_2" style="mask-type:luminance" maskUnits="userSpaceOnUse" x="82" y="28" width="5" height="7">
<path d="M82.1213 29.3799L85.5349 28.996L86.1368 33.8503L82.7232 34.2342L82.1213 29.3799Z" fill="white"/>
</mask>
<g mask="url(#mask64_15_2)">
<mask id="mask65_15_2" style="mask-type:luminance" maskUnits="userSpaceOnUse" x="42" y="-2" width="63" height="70">
<path d="M76.7153 67.9931L42.6704 38.1426L70.5769 -1.41205L104.622 28.4384L76.7153 67.9931Z" fill="white"/>
</mask>
<g mask="url(#mask65_15_2)">
<mask id="mask66_15_2" style="mask-type:luminance" maskUnits="userSpaceOnUse" x="42" y="-2" width="63" height="71">
<path d="M70.53 -1.40119L104.575 28.4498L76.6686 68.0044L42.6236 38.1539L70.53 -1.40119Z" fill="white"/>
</mask>
<g mask="url(#mask66_15_2)">
<mask id="mask67_15_2" style="mask-type:luminance" maskUnits="userSpaceOnUse" x="42" y="-2" width="63" height="71">
<path d="M70.53 -1.40119L104.575 28.4498L76.6686 68.0044L42.6236 38.1539L70.53 -1.40119Z" fill="white"/>
</mask>
<g mask="url(#mask67_15_2)">
<path d="M84.2379 33.4575C84.6428 32.6743 85.0821 32.4763 85.4826 32.2441C85.8835 32.0119 85.8157 31.4306 85.8157 31.4306C85.8157 31.4306 85.7474 30.8497 85.303 30.707C84.8585 30.5638 84.3845 30.4618 83.8084 29.7815C83.2331 29.1015 82.6462 29.3532 82.4149 29.7197C82.1839 30.0851 82.2292 30.7647 82.5623 30.9767C82.8944 31.1884 83.0113 31.4533 83.043 31.7227C83.0744 31.9925 83.022 32.2751 82.7456 32.551C82.4697 32.8268 82.5826 33.4987 82.8926 33.8081C83.2026 34.1174 83.8336 34.2411 84.2379 33.4575Z" fill="#38B9FF"/>
</g>
</g>
</g>
</g>
<mask id="mask68_15_2" style="mask-type:luminance" maskUnits="userSpaceOnUse" x="86" y="30" width="3" height="4">
<path d="M87.3753 30.7992L88.8975 31.7106L88.0037 33.1886L86.4815 32.2771L87.3753 30.7992Z" fill="white"/>
</mask>
<g mask="url(#mask68_15_2)">
<mask id="mask69_15_2" style="mask-type:luminance" maskUnits="userSpaceOnUse" x="71" y="19" width="64" height="53">
<path d="M82.9937 71.8763L71.1876 26.6131L122.23 19.1194L134.036 64.3829L82.9937 71.8763Z" fill="white"/>
</mask>
<g mask="url(#mask69_15_2)">
<mask id="mask70_15_2" style="mask-type:luminance" maskUnits="userSpaceOnUse" x="71" y="19" width="63" height="53">
<path d="M122.341 19.3114L133.764 64.5L82.766 71.6466L71.3421 26.4583L122.341 19.3114Z" fill="white"/>
</mask>
<g mask="url(#mask70_15_2)">
<mask id="mask71_15_2" style="mask-type:luminance" maskUnits="userSpaceOnUse" x="71" y="19" width="63" height="53">
<path d="M122.371 19.3415L133.727 64.5169L82.7348 71.6161L71.3787 26.4411L122.371 19.3415Z" fill="white"/>
</mask>
<g mask="url(#mask71_15_2)">
<path d="M87.3444 32.599C87.8217 32.7658 88.4335 32.5341 88.5758 32.096C88.7639 31.5171 88.0579 31.2472 87.5727 31.3214C87.1498 31.3853 86.4425 31.8081 86.8125 32.3141C86.9479 32.4992 87.1417 32.5841 87.3444 32.599Z" fill="#38B9FF"/>
</g>
</g>
</g>
</g>
<mask id="mask72_15_2" style="mask-type:luminance" maskUnits="userSpaceOnUse" x="86" y="28" width="3" height="3">
<path d="M86.5738 28.7564L88.3213 28.9619L88.1079 30.6904L86.3604 30.4849L86.5738 28.7564Z" fill="white"/>
</mask>
<g mask="url(#mask72_15_2)">
<mask id="mask73_15_2" style="mask-type:luminance" maskUnits="userSpaceOnUse" x="70" y="3" width="73" height="66">
<path d="M99.1838 68.3071L70.2134 31.6291L113.447 3.56319L142.418 40.2413L99.1838 68.3071Z" fill="white"/>
</mask>
<g mask="url(#mask73_15_2)">
<mask id="mask74_15_2" style="mask-type:luminance" maskUnits="userSpaceOnUse" x="70" y="3" width="73" height="66">
<path d="M113.625 3.69342L142.219 40.4617L98.8847 68.1907L70.291 31.4228L113.625 3.69342Z" fill="white"/>
</mask>
<g mask="url(#mask74_15_2)">
<mask id="mask75_15_2" style="mask-type:luminance" maskUnits="userSpaceOnUse" x="70" y="3" width="73" height="66">
<path d="M113.665 3.70835L142.192 40.4925L98.8442 68.1755L70.3174 31.3918L113.665 3.70835Z" fill="white"/>
</mask>
<g mask="url(#mask75_15_2)">
<path d="M87.2723 30.4226C87.7722 30.3777 88.2331 29.911 88.1853 29.4495C88.122 28.8397 87.3733 28.8847 86.9634 29.1542C86.606 29.3884 86.1356 30.0703 86.6753 30.3815C86.8727 30.4955 87.0826 30.493 87.2723 30.4226Z" fill="#38B9FF"/>
</g>
</g>
</g>
</g>
<mask id="mask76_15_2" style="mask-type:luminance" maskUnits="userSpaceOnUse" x="84" y="32" width="4" height="4">
<path d="M86.4022 32.8245L87.2651 34.3885L85.7463 35.1867L84.8833 33.6226L86.4022 32.8245Z" fill="white"/>
</mask>
<g mask="url(#mask76_15_2)">
<mask id="mask77_15_2" style="mask-type:luminance" maskUnits="userSpaceOnUse" x="61" y="20" width="62" height="66">
<path d="M61.9456 65.5843L74.4562 20.8872L122.527 40.8825L110.017 85.58L61.9456 65.5843Z" fill="white"/>
</mask>
<g mask="url(#mask77_15_2)">
<mask id="mask78_15_2" style="mask-type:luminance" maskUnits="userSpaceOnUse" x="61" y="20" width="62" height="66">
<path d="M122.528 41.1031L109.723 85.5377L61.8631 65.2684L74.6676 20.834L122.528 41.1031Z" fill="white"/>
</mask>
<g mask="url(#mask78_15_2)">
<mask id="mask79_15_2" style="mask-type:luminance" maskUnits="userSpaceOnUse" x="61" y="20" width="62" height="66">
<path d="M122.54 41.1447L109.683 85.5323L61.8514 65.2252L74.7079 20.8379L122.54 41.1447Z" fill="white"/>
</mask>
<g mask="url(#mask79_15_2)">
<path d="M85.4703 34.343C85.8007 34.732 86.4483 34.8507 86.7921 34.5507C87.2464 34.1543 86.7694 33.5592 86.3108 33.3717C85.9117 33.2075 85.0851 33.2024 85.1519 33.8251C85.1763 34.053 85.3019 34.2255 85.4703 34.343Z" fill="#38B9FF"/>
</g>
</g>
</g>
</g>
<mask id="mask80_15_2" style="mask-type:luminance" maskUnits="userSpaceOnUse" x="86" y="20" width="4" height="4">
<path d="M86.6286 22.2502L87.6703 20.8417L89.0605 21.9039L88.0188 23.3123L86.6286 22.2502Z" fill="white"/>
</mask>
<g mask="url(#mask80_15_2)">
<mask id="mask81_15_2" style="mask-type:luminance" maskUnits="userSpaceOnUse" x="78" y="-21" width="50" height="59">
<path d="M127.085 31.4099L81.0264 37.8712L78.1142 -13.8012L124.173 -20.2628L127.085 31.4099Z" fill="white"/>
</mask>
<g mask="url(#mask81_15_2)">
<mask id="mask82_15_2" style="mask-type:luminance" maskUnits="userSpaceOnUse" x="78" y="-20" width="49" height="58">
<path d="M78.3198 -13.8854L124.279 -19.9761L126.85 31.6024L80.891 37.6935L78.3198 -13.8854Z" fill="white"/>
</mask>
<g mask="url(#mask82_15_2)">
<mask id="mask83_15_2" style="mask-type:luminance" maskUnits="userSpaceOnUse" x="78" y="-20" width="49" height="58">
<path d="M78.3486 -13.9159L124.282 -19.9396L126.806 31.6357L80.8734 37.6597L78.3486 -13.9159Z" fill="white"/>
</mask>
<g mask="url(#mask83_15_2)">
<path d="M88.4157 22.4913C88.624 22.0357 88.448 21.3998 88.025 21.207C87.466 20.9523 87.1348 21.6233 87.1655 22.1149C87.1914 22.5431 87.549 23.2965 88.085 22.9873C88.2812 22.8742 88.3828 22.6913 88.4157 22.4913Z" fill="#38B9FF"/>
</g>
</g>
</g>
</g>
<mask id="mask84_15_2" style="mask-type:luminance" maskUnits="userSpaceOnUse" x="85" y="21" width="7" height="7">
<path d="M85.8654 24.5L88.1884 21.9695L91.8292 25.2362L89.5062 27.7667L85.8654 24.5Z" fill="white"/>
</mask>
<g mask="url(#mask84_15_2)">
<mask id="mask85_15_2" style="mask-type:luminance" maskUnits="userSpaceOnUse" x="56" y="8" width="52" height="50">
<path d="M107.137 57.1763L61.8588 57.0092L56.9425 8.85138L102.221 9.01826L107.137 57.1763Z" fill="white"/>
</mask>
<g mask="url(#mask85_15_2)">
<mask id="mask86_15_2" style="mask-type:luminance" maskUnits="userSpaceOnUse" x="56" y="8" width="52" height="50">
<path d="M56.9143 8.89033L102.192 9.05782L107.109 57.2156L61.8309 57.0484L56.9143 8.89033Z" fill="white"/>
</mask>
<g mask="url(#mask86_15_2)">
<mask id="mask87_15_2" style="mask-type:luminance" maskUnits="userSpaceOnUse" x="56" y="8" width="52" height="50">
<path d="M56.9143 8.89033L102.192 9.05782L107.109 57.2156L61.8309 57.0484L56.9143 8.89033Z" fill="white"/>
</mask>
<g mask="url(#mask87_15_2)">
<path d="M90.139 26.1864C89.9302 25.3299 90.1316 24.892 90.2813 24.454C90.4313 24.0157 89.9984 23.6217 89.9984 23.6217C89.9984 23.6217 89.5657 23.2283 89.1367 23.4124C88.7074 23.5962 88.2829 23.8305 87.4016 23.6955C86.5213 23.5602 86.2438 24.1354 86.3099 24.5636C86.3756 24.991 86.8559 25.4738 87.2463 25.4151C87.6358 25.3567 87.898 25.4798 88.0987 25.6622C88.2995 25.8452 88.4455 26.0928 88.4181 26.4823C88.3911 26.8715 88.9173 27.3042 89.3543 27.3341C89.7912 27.3639 90.3483 27.043 90.139 26.1864Z" fill="#38B9FF"/>
</g>
</g>
</g>
</g>
<mask id="mask88_15_2" style="mask-type:luminance" maskUnits="userSpaceOnUse" x="90" y="21" width="3" height="3">
<path d="M90.7606 22.1214L92.5072 21.8096L92.8033 23.5113L91.0567 23.8231L90.7606 22.1214Z" fill="white"/>
</mask>
<g mask="url(#mask88_15_2)">
<mask id="mask89_15_2" style="mask-type:luminance" maskUnits="userSpaceOnUse" x="75" y="-10" width="74" height="66">
<path d="M114.422 55.9839L75.8014 29.5908L109.385 -9.57046L148.006 16.8225L114.422 55.9839Z" fill="white"/>
</mask>
<g mask="url(#mask89_15_2)">
<mask id="mask90_15_2" style="mask-type:luminance" maskUnits="userSpaceOnUse" x="75" y="-10" width="73" height="66">
<path d="M109.595 -9.49858L147.878 17.0894L114.099 55.9601L75.8164 29.3726L109.595 -9.49858Z" fill="white"/>
</mask>
<g mask="url(#mask90_15_2)">
<mask id="mask91_15_2" style="mask-type:luminance" maskUnits="userSpaceOnUse" x="75" y="-10" width="73" height="66">
<path d="M109.638 -9.49606L147.861 17.1264L114.056 55.9575L75.8332 29.3355L109.638 -9.49606Z" fill="white"/>
</mask>
<g mask="url(#mask91_15_2)">
<path d="M91.9188 23.4994C92.3884 23.3119 92.6977 22.7355 92.5175 22.3116C92.2793 21.7514 91.5695 22.0113 91.2522 22.3858C90.9752 22.7116 90.7192 23.4949 91.3305 23.6336C91.5542 23.6845 91.756 23.6213 91.9188 23.4994Z" fill="#38B9FF"/>
</g>
</g>
</g>
</g>
<mask id="mask92_15_2" style="mask-type:luminance" maskUnits="userSpaceOnUse" x="88" y="20" width="4" height="3">
<path d="M88.8148 21.1067L90.2679 20.1145L91.2417 21.5585L89.7886 22.5507L88.8148 21.1067Z" fill="white"/>
</mask>
<g mask="url(#mask92_15_2)">
<mask id="mask93_15_2" style="mask-type:luminance" maskUnits="userSpaceOnUse" x="78" y="-16" width="61" height="59">
<path d="M124.292 42.6629L78.3595 34.0141L92.547 -15.5393L138.479 -6.89073L124.292 42.6629Z" fill="white"/>
</mask>
<g mask="url(#mask93_15_2)">
<mask id="mask94_15_2" style="mask-type:luminance" maskUnits="userSpaceOnUse" x="78" y="-16" width="61" height="59">
<path d="M92.7669 -15.558L138.474 -6.59373L123.99 42.7715L78.2826 33.8076L92.7669 -15.558Z" fill="white"/>
</mask>
<g mask="url(#mask94_15_2)">
<mask id="mask95_15_2" style="mask-type:luminance" maskUnits="userSpaceOnUse" x="78" y="-16" width="61" height="59">
<path d="M92.8071 -15.5731L138.474 -6.55298L123.949 42.7865L78.2823 33.7668L92.8071 -15.5731Z" fill="white"/>
</mask>
<g mask="url(#mask95_15_2)">
<path d="M90.4355 21.905C90.7832 21.543 90.8244 20.8883 90.4854 20.5716C90.0373 20.1531 89.502 20.6786 89.3699 21.151C89.254 21.5623 89.3468 22.3855 89.9582 22.266C90.1819 22.2223 90.3386 22.0827 90.4355 21.905Z" fill="#38B9FF"/>
</g>
</g>
</g>
</g>
<mask id="mask96_15_2" style="mask-type:luminance" maskUnits="userSpaceOnUse" x="90" y="24" width="4" height="3">
<path d="M91.356 24.2881L93.0337 24.9013L92.4119 26.5005L90.7342 25.8873L91.356 24.2881Z" fill="white"/>
</mask>
<g mask="url(#mask96_15_2)">
<mask id="mask97_15_2" style="mask-type:luminance" maskUnits="userSpaceOnUse" x="74" y="6" width="70" height="60">
<path d="M94.414 65.0555L74.508 23.1258L123.897 6.65079L143.803 48.5807L94.414 65.0555Z" fill="white"/>
</mask>
<g mask="url(#mask97_15_2)">
<mask id="mask98_15_2" style="mask-type:luminance" maskUnits="userSpaceOnUse" x="74" y="6" width="70" height="59">
<path d="M124.041 6.81852L143.554 48.7458L94.1482 64.8747L74.635 22.9478L124.041 6.81852Z" fill="white"/>
</mask>
<g mask="url(#mask98_15_2)">
<mask id="mask99_15_2" style="mask-type:luminance" maskUnits="userSpaceOnUse" x="74" y="6" width="70" height="59">
<path d="M124.077 6.84302L143.521 48.7702L94.1131 64.8518L74.6693 22.925L124.077 6.84302Z" fill="white"/>
</mask>
<g mask="url(#mask99_15_2)">
<path d="M91.6499 26.0454C92.1545 26.1219 92.7209 25.7863 92.7833 25.3343C92.8658 24.737 92.1153 24.6013 91.6463 24.7608C91.2375 24.8991 90.6106 25.4378 91.0697 25.8637C91.2377 26.0196 91.4457 26.0673 91.6499 26.0454Z" fill="#38B9FF"/>
</g>
</g>
</g>
</g>
<mask id="mask100_15_2" style="mask-type:luminance" maskUnits="userSpaceOnUse" x="95" y="17" width="3" height="4">
<path d="M95.1804 19.5816L95.5907 17.8786L97.2849 18.3148L96.8746 20.0179L95.1804 19.5816Z" fill="white"/>
</mask>
<g mask="url(#mask100_15_2)">
<mask id="mask101_15_2" style="mask-type:luminance" maskUnits="userSpaceOnUse" x="73" y="-35" width="64" height="72">
<path d="M136.008 12.2472L96.1102 36.1508L73.2868 -10.2993L113.184 -34.2033L136.008 12.2472Z" fill="white"/>
</mask>
<g mask="url(#mask101_15_2)">
<mask id="mask102_15_2" style="mask-type:luminance" maskUnits="userSpaceOnUse" x="73" y="-34" width="63" height="71">
<path d="M73.4321 -10.4602L113.368 -33.9746L135.848 12.5394L95.9122 36.0539L73.4321 -10.4602Z" fill="white"/>
</mask>
<g mask="url(#mask102_15_2)">
<mask id="mask103_15_2" style="mask-type:luminance" maskUnits="userSpaceOnUse" x="73" y="-34" width="63" height="71">
<path d="M73.4548 -10.4972L113.403 -33.9459L135.833 12.5712L95.8856 36.02L73.4548 -10.4972Z" fill="white"/>
</mask>
<g mask="url(#mask103_15_2)">
<path d="M96.92 19.1073C96.9343 18.6066 96.5243 18.0895 96.0597 18.0768C95.4456 18.06 95.4022 18.807 95.622 19.2478C95.8128 19.6322 96.4357 20.1866 96.8088 19.693C96.9454 19.5124 96.9676 19.3043 96.92 19.1073Z" fill="#38B9FF"/>
</g>
</g>
</g>
</g>
<mask id="mask104_15_2" style="mask-type:luminance" maskUnits="userSpaceOnUse" x="95" y="18" width="7" height="6">
<path d="M95.3545 21.951L96.5074 18.7152L101.134 20.3043L99.9807 23.5402L95.3545 21.951Z" fill="white"/>
</mask>
<g mask="url(#mask104_15_2)">
<mask id="mask105_15_2" style="mask-type:luminance" maskUnits="userSpaceOnUse" x="62" y="1" width="66" height="61">
<path d="M127.68 43.7514L85.9185 61.2464L62.6196 18.8141L104.381 1.31872L127.68 43.7514Z" fill="white"/>
</mask>
<g mask="url(#mask105_15_2)">
<mask id="mask106_15_2" style="mask-type:luminance" maskUnits="userSpaceOnUse" x="62" y="1" width="66" height="61">
<path d="M62.6087 18.8608L104.371 1.36599L127.67 43.7983L85.9081 61.2933L62.6087 18.8608Z" fill="white"/>
</mask>
<g mask="url(#mask106_15_2)">
<mask id="mask107_15_2" style="mask-type:luminance" maskUnits="userSpaceOnUse" x="62" y="1" width="66" height="61">
<path d="M62.6087 18.8608L104.371 1.36599L127.67 43.7983L85.9081 61.2933L62.6087 18.8608Z" fill="white"/>
</mask>
<g mask="url(#mask107_15_2)">
<path d="M99.9474 21.8383C99.4212 21.1309 99.436 20.6492 99.4032 20.1874C99.3704 19.7253 98.8182 19.5312 98.8182 19.5312C98.8182 19.5312 98.2664 19.3376 97.9431 19.6743C97.6193 20.0109 97.3198 20.3921 96.4556 20.6113C95.5922 20.8299 95.5608 21.4677 95.7886 21.8364C96.0157 22.2043 96.6462 22.4617 96.9829 22.2555C97.3188 22.0499 97.6082 22.0611 97.8642 22.1508C98.1204 22.241 98.3513 22.4121 98.478 22.7815C98.6047 23.1505 99.2581 23.3439 99.6721 23.201C100.086 23.0581 100.474 22.5455 99.9474 21.8383Z" fill="#38B9FF"/>
</g>
</g>
</g>
</g>
<mask id="mask108_15_2" style="mask-type:luminance" maskUnits="userSpaceOnUse" x="98" y="16" width="4" height="4">
<path d="M98.9353 17.8525L100.422 16.8845L101.358 18.3362L99.8713 19.3041L98.9353 17.8525Z" fill="white"/>
</mask>
<g mask="url(#mask108_15_2)">
<mask id="mask109_15_2" style="mask-type:luminance" maskUnits="userSpaceOnUse" x="88" y="-19" width="62" height="59">
<path d="M133.924 39.8136L88.0709 30.5621L103.733 -18.5922L149.587 -9.34093L133.924 39.8136Z" fill="white"/>
</mask>
<g mask="url(#mask109_15_2)">
<mask id="mask110_15_2" style="mask-type:luminance" maskUnits="userSpaceOnUse" x="87" y="-19" width="63" height="59">
<path d="M103.954 -18.6078L149.573 -9.04526L133.618 39.9174L87.9996 30.3553L103.954 -18.6078Z" fill="white"/>
</mask>
<g mask="url(#mask110_15_2)">
<mask id="mask111_15_2" style="mask-type:luminance" maskUnits="userSpaceOnUse" x="88" y="-19" width="62" height="59">
<path d="M103.995 -18.6222L149.572 -9.00467L133.577 39.9319L88.0005 30.3147L103.995 -18.6222Z" fill="white"/>
</mask>
<g mask="url(#mask111_15_2)">
<path d="M100.539 18.6701C100.898 18.3144 100.959 17.663 100.627 17.3428C100.19 16.9198 99.6374 17.4358 99.4912 17.9044C99.363 18.3124 99.4326 19.1335 100.05 19.023C100.275 18.9826 100.437 18.8457 100.539 18.6701Z" fill="#38B9FF"/>
</g>
</g>
</g>
</g>
<mask id="mask112_15_2" style="mask-type:luminance" maskUnits="userSpaceOnUse" x="96" y="16" width="4" height="3">
<path d="M96.748 17.6765L97.6993 16.1964L99.1589 17.1466L98.2076 18.6267L96.748 17.6765Z" fill="white"/>
</mask>
<g mask="url(#mask112_15_2)">
<mask id="mask113_15_2" style="mask-type:luminance" maskUnits="userSpaceOnUse" x="85" y="-28" width="53" height="62">
<path d="M137.821 23.6992L92.1508 33.6384L85.9006 -17.5257L131.571 -27.4653L137.821 23.6992Z" fill="white"/>
</mask>
<g mask="url(#mask113_15_2)">
<mask id="mask114_15_2" style="mask-type:luminance" maskUnits="userSpaceOnUse" x="86" y="-28" width="52" height="62">
<path d="M86.0958 -17.6286L131.682 -27.1897L137.585 23.9168L91.9994 33.4782L86.0958 -17.6286Z" fill="white"/>
</mask>
<g mask="url(#mask114_15_2)">
<mask id="mask115_15_2" style="mask-type:luminance" maskUnits="userSpaceOnUse" x="86" y="-28" width="52" height="62">
<path d="M86.1267 -17.6582L131.698 -27.1522L137.554 23.9468L91.983 33.441L86.1267 -17.6582Z" fill="white"/>
</mask>
<g mask="url(#mask115_15_2)">
<path d="M98.5515 17.78C98.7306 17.3111 98.5134 16.6921 98.0778 16.5326C97.502 16.3219 97.2139 17.0144 97.2763 17.501C97.3299 17.9249 97.7363 18.6469 98.2527 18.2985C98.4417 18.1711 98.5315 17.9814 98.5515 17.78Z" fill="#38B9FF"/>
</g>
</g>
</g>
</g>
<mask id="mask116_15_2" style="mask-type:luminance" maskUnits="userSpaceOnUse" x="100" y="19" width="3" height="3">
<path d="M100.328 19.6157L102.112 19.5265L102.163 21.2415L100.379 21.3308L100.328 19.6157Z" fill="white"/>
</mask>
<g mask="url(#mask116_15_2)">
<mask id="mask117_15_2" style="mask-type:luminance" maskUnits="userSpaceOnUse" x="84" y="-10" width="75" height="66">
<path d="M119.035 55.9665L84.3598 25.1125L123.42 -9.31059L158.096 21.5434L119.035 55.9665Z" fill="white"/>
</mask>
<g mask="url(#mask117_15_2)">
<mask id="mask118_15_2" style="mask-type:luminance" maskUnits="userSpaceOnUse" x="84" y="-10" width="74" height="66">
<path d="M123.619 -9.21347L157.93 21.7906L118.717 55.9028L84.4059 24.8992L123.619 -9.21347Z" fill="white"/>
</mask>
<g mask="url(#mask118_15_2)">
<mask id="mask119_15_2" style="mask-type:luminance" maskUnits="userSpaceOnUse" x="84" y="-10" width="74" height="66">
<path d="M123.661 -9.20556L157.908 21.825L118.675 55.8949L84.4278 24.8647L123.661 -9.20556Z" fill="white"/>
</mask>
<g mask="url(#mask119_15_2)">
<path d="M101.284 21.1194C101.779 20.9932 102.169 20.4634 102.05 20.0228C101.894 19.4406 101.15 19.6082 100.78 19.9379C100.457 20.2246 100.09 20.965 100.679 21.1782C100.894 21.2563 101.104 21.2192 101.284 21.1194Z" fill="#38B9FF"/>
</g>
</g>
</g>
</g>
<mask id="mask120_15_2" style="mask-type:luminance" maskUnits="userSpaceOnUse" x="1" y="10" width="5" height="5">
<path d="M1.13177 13.0882L2.32796 10.1281L5.55332 11.4086L4.35714 14.3687L1.13177 13.0882Z" fill="white"/>
</mask>
<g mask="url(#mask120_15_2)">
<mask id="mask121_15_2" style="mask-type:luminance" maskUnits="userSpaceOnUse" x="-35" y="-79" width="118" height="123">
<path d="M82.9518 11.6762L-0.845609 43.3165L-34.9843 -47.2928L48.8134 -78.9338L82.9518 11.6762Z" fill="white"/>
</mask>
<g mask="url(#mask121_15_2)">
<mask id="mask122_15_2" style="mask-type:luminance" maskUnits="userSpaceOnUse" x="-35" y="-79" width="118" height="123">
<path d="M-34.6523 -47.5373L49.146 -78.4689L82.5908 12.1402L-1.20674 43.0721L-34.6523 -47.5373Z" fill="white"/>
</mask>
<g mask="url(#mask122_15_2)">
<mask id="mask123_15_2" style="mask-type:luminance" maskUnits="userSpaceOnUse" x="-35" y="-79" width="118" height="123">
<path d="M-34.605 -47.6001L49.1933 -78.4061L82.5434 12.203L-1.2541 43.0093L-34.605 -47.6001Z" fill="white"/>
</mask>
<g mask="url(#mask123_15_2)">
<path d="M4.6554 12.7347C4.79836 11.8336 4.11222 10.78 3.20297 10.6223C2.00139 10.4141 1.74472 11.7521 2.07518 12.6127C2.36156 13.3628 3.45709 14.5458 4.30282 13.7614C4.61239 13.4745 4.70379 13.1047 4.6554 12.7347Z" fill="#38B9FF"/>
</g>
</g>
</g>
</g>
<mask id="mask124_15_2" style="mask-type:luminance" maskUnits="userSpaceOnUse" x="3" y="7" width="5" height="5">
<path d="M3.23187 9.85104L5.04635 7.22404L7.91369 9.17878L6.09921 11.8058L3.23187 9.85104Z" fill="white"/>
</mask>
<g mask="url(#mask124_15_2)">
<mask id="mask125_15_2" style="mask-type:luminance" maskUnits="userSpaceOnUse" x="-19" y="-70" width="103" height="109">
<path d="M83.3809 26.363L-5.30697 38.9155L-18.8082 -56.9657L69.8802 -69.5189L83.3809 26.363Z" fill="white"/>
</mask>
<g mask="url(#mask125_15_2)">
<mask id="mask126_15_2" style="mask-type:luminance" maskUnits="userSpaceOnUse" x="-19" y="-69" width="102" height="108">
<path d="M-18.4307 -57.1317L70.1031 -68.9925L82.9272 26.7368L-5.60594 38.5981L-18.4307 -57.1317Z" fill="white"/>
</mask>
<g mask="url(#mask126_15_2)">
<mask id="mask127_15_2" style="mask-type:luminance" maskUnits="userSpaceOnUse" x="-19" y="-69" width="102" height="108">
<path d="M-18.3708 -57.1826L70.1356 -68.9209L82.8673 26.7877L-5.63838 38.5265L-18.3708 -57.1826Z" fill="white"/>
</mask>
<g mask="url(#mask127_15_2)">
<path d="M6.74759 10.2765C7.08412 9.42843 6.64494 8.25033 5.79216 7.89768C4.66519 7.43175 4.12218 8.68127 4.25647 9.59332C4.37191 10.3879 5.18229 11.7817 6.17906 11.2013C6.54388 10.9889 6.71391 10.6481 6.74759 10.2765Z" fill="#38B9FF"/>
</g>
</g>
</g>
</g>
<mask id="mask128_15_2" style="mask-type:luminance" maskUnits="userSpaceOnUse" x="6" y="6" width="5" height="6">
<path d="M6.37076 8.1641L9.00285 6.35701L10.9844 9.20586L8.35235 11.013L6.37076 8.1641Z" fill="white"/>
</mask>
<g mask="url(#mask128_15_2)">
<mask id="mask129_15_2" style="mask-type:luminance" maskUnits="userSpaceOnUse" x="-12" y="-63" width="109" height="116">
<path d="M75.3596 52.176L-11.9727 32.2717L9.61093 -62.1192L96.9439 -42.2153L75.3596 52.176Z" fill="white"/>
</mask>
<g mask="url(#mask129_15_2)">
<mask id="mask130_15_2" style="mask-type:luminance" maskUnits="userSpaceOnUse" x="-13" y="-63" width="110" height="116">
<path d="M10.0228 -62.1396L96.9644 -41.644L74.8024 52.3634L-12.1388 31.8686L10.0228 -62.1396Z" fill="white"/>
</mask>
<g mask="url(#mask130_15_2)">
<mask id="mask131_15_2" style="mask-type:luminance" maskUnits="userSpaceOnUse" x="-13" y="-63" width="110" height="116">
<path d="M10.097 -62.1659L96.9692 -41.5655L74.7283 52.3896L-12.1435 31.7901L10.097 -62.1659Z" fill="white"/>
</mask>
<g mask="url(#mask131_15_2)">
<path d="M9.50347 9.81551C10.1203 9.14322 10.1302 7.88596 9.4593 7.25236C8.57263 6.41512 7.61968 7.38879 7.41984 8.28876C7.24429 9.07226 7.50425 10.6635 8.6425 10.4767C9.05905 10.4084 9.33946 10.1507 9.50347 9.81551Z" fill="#38B9FF"/>
</g>
</g>
</g>
</g>
<mask id="mask132_15_2" style="mask-type:luminance" maskUnits="userSpaceOnUse" x="9" y="8" width="5" height="5">
<path d="M9.46725 9.07238L12.5986 8.44913L13.2967 11.8484L10.1654 12.4717L9.46725 9.07238Z" fill="white"/>
</mask>
<g mask="url(#mask132_15_2)">
<mask id="mask133_15_2" style="mask-type:luminance" maskUnits="userSpaceOnUse" x="-17" y="-55" width="130" height="132">
<path d="M55.5216 76.7149L-16.8937 23.9974L40.1495 -54.243L112.566 -1.52562L55.5216 76.7149Z" fill="white"/>
</mask>
<g mask="url(#mask133_15_2)">
<mask id="mask134_15_2" style="mask-type:luminance" maskUnits="userSpaceOnUse" x="-17" y="-55" width="130" height="132">
<path d="M40.5361 -54.0995L112.359 -0.992518L54.9356 76.6675L-16.8875 23.5614L40.5361 -54.0995Z" fill="white"/>
</mask>
<g mask="url(#mask134_15_2)">
<mask id="mask135_15_2" style="mask-type:luminance" maskUnits="userSpaceOnUse" x="-17" y="-55" width="130" height="132">
<path d="M40.6146 -54.0943L112.333 -0.918478L54.8571 76.6624L-16.8609 23.4874L40.6146 -54.0943Z" fill="white"/>
</mask>
<g mask="url(#mask135_15_2)">
<path d="M11.6954 11.8249C12.5273 11.4502 13.032 10.2987 12.6651 9.45191C12.1803 8.33295 10.9207 8.85216 10.3823 9.60048C9.91209 10.2513 9.52378 11.8162 10.6435 12.0932C11.0532 12.1947 11.4125 12.0683 11.6954 11.8249Z" fill="#38B9FF"/>
</g>
</g>
</g>
</g>
</svg>
